<?xml version="1.0" encoding="UTF-8" standalone="no"?>
<!-- Created with Inkscape (http://www.inkscape.org/) -->

<svg
   width="500"
   height="500"
   viewBox="0 0 132.29166 132.29167"
   version="1.1"
   id="svg5"
   xmlns="http://www.w3.org/2000/svg"
   xmlns:svg="http://www.w3.org/2000/svg">
  <defs
     id="defs2" />
  <g
     id="layer1">
    <g
       id="g1281"
       transform="matrix(0.3436379,0,0,0.3436379,-21.907233,-21.825471)"
       style="fill:#d54857;fill-opacity:1">
      <path
         d="m 417.5,160 h -61.7 c -32.1,-36 -42.2,-48 -54.5,-48 h -88.5 c -12.3,0 -22.2,12 -54.5,48 H 145 v -16 h -34 v 16 H 97.5 C 79.9,160 64,173.2 64,190.7 v 176 c 0,17.5 15.9,33.3 33.5,33.3 h 320 c 17.6,0 30.5,-15.8 30.5,-33.3 v -176 C 448,173.2 435.1,160 417.5,160 Z M 256,360.5 c -47.1,0 -85.5,-38.4 -85.5,-85.5 0,-47.1 38.4,-85.5 85.5,-85.5 47.1,0 85.5,38.4 85.5,85.5 0,47.1 -38.4,85.5 -85.5,85.5 z M 369,209 h -17 v -17 h 17 z"
         id="path1277"
         style="fill:#d54857;fill-opacity:1" />
      <path
         d="m 256,205.5 c -38.4,0 -69.5,31.1 -69.5,69.5 0,38.4 31.1,69.5 69.5,69.5 38.4,0 69.5,-31.1 69.5,-69.5 0,-38.4 -31.1,-69.5 -69.5,-69.5 z m 0,101.5 c -17.7,0 -32,-14.3 -32,-32 0,-17.7 14.3,-32 32,-32 17.7,0 32,14.3 32,32 0,17.7 -14.3,32 -32,32 z"
         id="path1279"
         style="fill:#d54857;fill-opacity:1" />
    </g>
  </g>
</svg>
