<?xml version="1.0" encoding="UTF-8" standalone="no"?>
<!-- Created with Inkscape (http://www.inkscape.org/) -->

<svg
   width="500"
   height="500"
   viewBox="0 0 132.29166 132.29167"
   version="1.1"
   id="svg5"
   xmlns="http://www.w3.org/2000/svg"
   xmlns:svg="http://www.w3.org/2000/svg">
  <defs
     id="defs2" />
  <g
     id="layer1">
    <g
       id="g991"
       transform="matrix(2.7471879,0,0,2.7471879,0.21332391,0.21332391)"
       style="fill:#d54857;fill-opacity:1">
      <g
         id="g973"
         style="fill:#d54857;fill-opacity:1">
        <path
           d="M 44,40 H 4 C 1.794,40 0,38.206 0,36 V 6 C 0,3.794 1.794,2 4,2 h 40 c 2.206,0 4,1.794 4,4 v 30 c 0,2.206 -1.794,4 -4,4 z M 4,4 C 2.897,4 2,4.897 2,6 v 30 c 0,1.103 0.897,2 2,2 h 40 c 1.103,0 2,-0.897 2,-2 V 6 C 46,4.897 45.103,4 44,4 Z"
           id="path971"
           style="fill:#d54857;fill-opacity:1" />
      </g>
      <g
         id="g977"
         style="fill:#d54857;fill-opacity:1">
        <path
           d="M 38,46 H 10 C 9.448,46 9,45.552 9,45 9,44.448 9.448,44 10,44 h 28 c 0.552,0 1,0.448 1,1 0,0.552 -0.448,1 -1,1 z"
           id="path975"
           style="fill:#d54857;fill-opacity:1" />
      </g>
      <g
         id="g981"
         style="fill:#d54857;fill-opacity:1">
        <path
           d="M 31.02,46 C 31.013,46 31.007,46 31,46 H 17 c -0.321,0 -0.623,-0.154 -0.811,-0.416 -0.188,-0.261 -0.239,-0.596 -0.138,-0.901 l 2,-6 C 18.188,38.275 18.569,38 19,38 h 10 c 0.431,0 0.812,0.275 0.949,0.684 l 1.94,5.821 c 0.083,0.146 0.131,0.315 0.131,0.495 0,0.552 -0.448,1 -1,1 z M 18.387,44 H 29.613 L 28.28,40 h -8.559 z"
           id="path979"
           style="fill:#d54857;fill-opacity:1" />
      </g>
      <g
         id="g985"
         style="fill:#d54857;fill-opacity:1">
        <path
           d="M 44,32 H 4 V 6 H 44 Z M 6,30 H 42 V 8 H 6 Z"
           id="path983"
           style="fill:#d54857;fill-opacity:1" />
      </g>
      <g
         id="g989"
         style="fill:#d54857;fill-opacity:1">
        <circle
           cx="24"
           cy="35"
           r="2"
           id="circle987"
           style="fill:#d54857;fill-opacity:1" />
      </g>
    </g>
  </g>
</svg>
